<svg version="1.1" id="Camada_1" xmlns="http://www.w3.org/2000/svg" x="0" y="0" viewBox="0 0 2000 508.6" style="enable-background:new 0 0 2000 508.6" xml:space="preserve"><style>.st1{fill:#009a4e}.st3{fill:#ed1b2f}.st4{fill:none}</style><path d="M753.8 246.7c.8 0 1.6.8 1.6 1.6s-.8 1.6-1.6 1.6h-4.1c-.8 0-1.6-.8-1.6-1.6s.8-1.6 1.6-1.6h4.1zm-8.2-4h2.4c.4 0 1.2.4 1.2 1.2 0 .4-.4 1.2-1.2 1.2h-2.4c-.4 0-1.2-.4-1.2-1.2 0-.8.4-1.2 1.2-1.2zm-7.7 4.4h2.4c.4 0 1.2.4 1.2 1.2 0 .4-.4 1.2-1.2 1.2h-2.4c-.4 0-1.2-.4-1.2-1.2.4-.8.8-1.2 1.2-1.2zm-4.9-4.4h2.4c.4 0 1.2.4 1.2 1.2 0 .4-.4 1.2-1.2 1.2H733c-.4 0-1.2-.4-1.2-1.2.4-.8.8-1.2 1.2-1.2zm-2.8 19.9h-2.4c-.4 0-1.2-.4-1.2-1.2 0-.4.4-.8 1.2-.8h2.4c.4 0 .8.4.8.8.4.8 0 1.2-.8 1.2zm2.8-8.9h-2.4c-.4 0-1.2-.4-1.2-.8s.4-.8 1.2-.8h2.4c.4 0 1.2.4 1.2.8 0 .3-.8.8-1.2.8zm4.9 4.4h-2.4c-.4 0-.8-.4-.8-.8s.4-1.2.8-1.2h2.4c.4 0 1.2.4 1.2 1.2-.4.4-.8.8-1.2.8zm4.9 4.5h-2.4c-.4 0-.8-.4-.8-1.2 0-.4.4-.8.8-.8h2.4c.4 0 1.2.4 1.2.8-.4.8-.8 1.2-1.2 1.2zm0-8.9c-.4 0-.8-.4-.8-.8s.4-.8.8-.8h2.4c.4 0 .8.4.8.8s-.4.8-.8.8h-2.4zm4.5 4.8c-.8 0-1.6-.8-1.6-1.6s.8-1.6 1.6-1.6h4.1c.8 0 1.6.8 1.6 1.6s-.8 1.6-1.6 1.6h-4.1z" style="fill:#f9b29e"/><path class="st1" d="M2000 0H353.7c-57.2 0-87.1 0-118.3 3.9C162.5 13 98.8 44.2 59.8 89.7 20.8 136.5 0 193.8 0 253.6c0 68.9 27.3 133.9 76.7 182.1 36.4 36.4 84.5 58.5 145.6 67.6 40.3 6.5 80.6 5.2 117 5.2h1524L2000 0z"/><path d="M1854.4 496.7H364.1c-98.8 0-201.6 6.5-279.6-68.9C39 383.6 11.7 322.5 11.7 253.6c0-59.8 20.8-114.4 57.2-157.3 40.3-48.1 104-74.1 167.8-81.9 32.5-3.9 62.4-3.9 117-3.9h1630.7l-130 486.2z" style="fill:#fff"/><path class="st3" d="M1749 343.3c-1.3 6.5-2.6 13-2.6 18.2 0 15.6 11.7 18.2 23.4 18.2h24.7l-10.4 42.9h-49.4c-15.6 0-28.6-1.3-35.1-3.9-16.9-6.5-27.3-22.1-27.3-44.2 0-10.4 2.6-20.8 3.9-31.2 2.6-13 70.2-254.9 70.2-254.9l76.7-14.3c0-1.3-72.8 257.5-74.1 269.2zm-420-193.8h-53.3l20.8-76.7-76.7 13-16.9 65h-26l-11.7 42.9h26s-41.6 149.5-44.2 161.2c-2.6 7.8-3.9 18.2-3.9 26 0 19.5 13 33.8 29.9 39 6.5 2.6 16.9 2.6 29.9 2.6h53.3l11.7-42.9h-27.3c-11.7 0-23.4-1.3-23.4-15.6 0-3.9 1.3-7.8 1.3-13 1.3-6.5 44.2-158.6 44.2-158.6h53.3l13-42.9zm-171.7-1.3c-18.2-5.2-39-7.8-58.5-7.8-55.9 0-115.7 29.9-117 93.6 0 57.2 68.9 76.7 68.9 109.2 0 26-23.4 36.4-46.8 36.4-18.2 0-37.7-2.6-55.9-7.8L936.3 416c23.4 7.8 52 10.4 76.7 10.4 57.2 0 109.2-32.5 110.5-94.9 0-61.1-65-74.1-65-109.2 0-27.3 27.3-35.1 49.4-35.1 11.7 0 24.7 1.3 36.4 3.9l13-42.9zm-401.8-13c0-49.4-33.8-66.3-78-66.3-45.5 0-83.2 20.8-113.1 55.9-40.3 48.1-74.1 150.8-74.1 213.3 0 65 27.3 97.5 93.6 97.5 92.3 0 114.4-75.4 136.5-149.5l-79.3 15.6c-6.5 20.8-22.1 81.9-50.7 81.9-16.9 0-20.8-15.6-20.8-29.9 0-41.6 24.7-122.2 40.3-161.2 7.8-20.8 28.6-68.9 55.9-68.9 6.5 0 10.4 3.9 13 6.5 2.6 3.9 3.9 7.8 3.9 14.3 0 2.6 0 9.1-1.3 13-1.3 10.4-16.9 62.4-16.9 62.4l76.7-13c5.2-23.4 14.3-49.5 14.3-71.6zm741.2 13c-11.7-6.5-29.9-7.8-45.5-7.8-31.2 0-68.9 5.2-96.2 19.5l-72.8 261.4h72.8l62.4-227.6c10.4-3.9 22.1-5.2 32.5-5.2 9.1 0 14.3 0 19.5 1.3l27.3-41.6zM954.5 248.4l-46.8 167.8c-32.5 9.1-66.3 13-100.1 13-42.9 0-85.8-20.8-85.8-68.9 0-84.5 91-107.9 158.6-114.4 3.9-10.4 6.5-22.1 6.5-33.8 0-19.5-16.9-23.4-32.5-23.4-22.1 0-53.3 6.5-74.1 13l11.7-45.5c23.4-10.4 57.2-14.3 83.2-14.3 40.3 0 84.5 13 84.5 62.4 1.3 14.2-1.3 28.5-5.2 44.1zM798.4 351.1c0 16.9 7.8 29.9 26 29.9 6.5 0 13 0 20.8-1.3L870 290c-35.1 3.9-71.6 20.8-71.6 61.1zm855.7-40.3c-23.4 65-62.4 118.3-137.8 118.3-52 0-81.9-26-81.9-79.3 0-23.4 6.5-49.4 13-71.5 20.8-62.4 67.6-136.5 141.7-136.5 55.9 0 81.9 28.6 81.9 83.2 1.3 26-7.8 59.8-16.9 85.8zm-67.6-122.2c-7.8 0-13 3.9-19.5 9.1-19.5 18.2-41.6 75.4-52 119.6-5.2 20.8-7.8 32.5-7.8 45.5 0 11.7 5.2 18.2 14.3 18.2 7.8 0 15.6-5.2 20.8-10.4 10.4-10.4 16.9-24.7 24.7-44.2 18.2-44.2 32.5-101.4 32.5-119.6 1.3-9.1-2.6-18.2-13-18.2z"/><path class="st4" d="M295.2 225h9.1c2.6 0 3.9-1.3 3.9-3.9 0-2.6-1.3-3.9-3.9-3.9h-9.1c-2.6 0-3.9 1.3-3.9 3.9 0 2.6 2.6 3.9 3.9 3.9zM265.3 239.3h14.3c2.6 0 5.2-2.6 5.2-5.2s-2.6-5.2-5.2-5.2h-14.3c-2.6 0-5.2 2.6-5.2 5.2 0 3.9 2.6 5.2 5.2 5.2zM277 262.7c0-2.6-2.6-5.2-5.2-5.2h-14.3c-2.6 0-5.2 2.6-5.2 5.2s2.6 5.2 5.2 5.2h14.3c2.6 0 5.2-1.3 5.2-5.2zM247.1 256.2c3.9 0 6.5-2.6 6.5-6.5s-2.6-7.8-6.5-7.8h-10.4l-3.9 14.3h14.3zM313.4 238h9.1c2.6 0 3.9-1.3 3.9-3.9s-1.3-3.9-3.9-3.9h-9.1c-2.6 0-3.9 1.3-3.9 3.9s2.6 3.9 3.9 3.9zM287.4 273.1h-9.1c-2.6 0-3.9 1.3-3.9 3.9s1.3 3.9 3.9 3.9h9.1c2.6 0 3.9-1.3 3.9-3.9s-1.3-3.9-3.9-3.9zM340.7 244.5h-9.1c-2.6 0-3.9 1.3-3.9 3.9s1.3 3.9 3.9 3.9h9.1c2.6 0 3.9-1.3 3.9-3.9 0-1.3-1.3-3.9-3.9-3.9zM296.5 244.5h-9.1c-2.6 0-3.9 1.3-3.9 3.9s1.3 3.9 3.9 3.9h9.1c2.6 0 3.9-1.3 3.9-3.9 0-1.3-2.6-3.9-3.9-3.9zM348.5 217.2h-9.1c-2.6 0-3.9 1.3-3.9 3.9 0 2.6 1.3 3.9 3.9 3.9h9.1c2.6 0 3.9-1.3 3.9-3.9 0-2.6-1.3-3.9-3.9-3.9zM314.7 258.8h-9.1c-2.6 0-3.9 1.3-3.9 3.9 0 2.6 1.3 3.9 3.9 3.9h9.1c2.6 0 3.9-1.3 3.9-3.9 0-1.3-2.6-3.9-3.9-3.9zM331.6 273.1h-9.1c-2.6 0-3.9 1.3-3.9 3.9s1.3 3.9 3.9 3.9h9.1c2.6 0 3.9-1.3 3.9-3.9s-1.3-3.9-3.9-3.9z"/><path class="st3" d="M162.5 238h7.8c1.3 0 3.9-1.3 3.9-3.9 0-1.3-1.3-3.9-3.9-3.9h-7.8c-1.3 0-3.9 1.3-3.9 3.9 1.3 2.6 2.6 3.9 3.9 3.9zM187.3 223.7h7.8c1.3 0 3.9-1.3 3.9-3.9 0-1.3-1.3-3.9-3.9-3.9h-7.8c-1.3 0-3.9 1.3-3.9 3.9 0 2.6 1.3 3.9 3.9 3.9zM244.5 213.3h-13c-3.9 0-6.5 2.6-6.5 6.5s2.6 6.5 6.5 6.5h10.4l2.6-13zM196.4 234.1c0 2.6 2.6 5.2 5.2 5.2h13c2.6 0 5.2-2.6 5.2-5.2s-2.6-5.2-5.2-5.2h-13c-3.9 1.3-5.2 2.6-5.2 5.2zM206.8 277c0 3.9 2.6 6.5 6.5 6.5h10.4l3.9-14.3h-14.3c-2.6 1.3-6.5 3.9-6.5 7.8zM215.9 248.4c0 3.9 2.6 7.8 6.5 7.8h9.1l3.9-14.3h-14.3c-1.3 0-5.2 2.6-5.2 6.5zM178.2 274.4h-7.8c-1.3 0-2.6 1.3-2.6 2.6s1.3 3.9 2.6 3.9h7.8c1.3 0 3.9-1.3 3.9-3.9-1.3-1.3-2.6-2.6-3.9-2.6zM189.9 249.7c0-1.3-1.3-2.6-2.6-2.6h-7.8c-1.3 0-2.6 1.3-2.6 2.6s1.3 2.6 2.6 2.6h7.8c1.3 0 2.6-1.3 2.6-2.6zM209.4 262.7c0-2.6-2.6-5.2-5.2-5.2h-13c-2.6 0-5.2 2.6-5.2 5.2s2.6 5.2 5.2 5.2h13c3.9 0 5.2-2.6 5.2-5.2zM146.9 223.7h7.8c1.3 0 3.9-1.3 3.9-3.9 0-1.3-1.3-3.9-3.9-3.9h-7.8c-1.3 0-3.9 1.3-3.9 3.9 1.3 2.6 2.6 3.9 3.9 3.9z"/><path class="st3" d="M452.5 213.3h-195c2.6 1.3 5.2 3.9 5.2 6.5 0 3.9-2.6 6.5-6.5 6.5h-14.3l-3.9 14.3h9.1c3.9 0 6.5 3.9 6.5 7.8s-2.6 6.5-6.5 6.5h-14.3l-3.9 14.3h10.4c3.9 0 6.5 2.6 6.5 6.5s-2.6 6.5-6.5 7.8h214.6c1.3-10.4 2.6-19.5 2.6-29.9-.1-13-1.4-27.3-4-40.3zm-139.1 16.9h9.1c2.6 0 3.9 1.3 3.9 3.9 0 2.6-1.3 3.9-3.9 3.9h-9.1c-2.6 0-3.9-1.3-3.9-3.9 0-1.3 2.6-3.9 3.9-3.9zm-18.2-13h9.1c2.6 0 3.9 1.3 3.9 3.9s-1.3 3.9-3.9 3.9h-9.1c-2.6 0-3.9-1.3-3.9-3.9s2.6-3.9 3.9-3.9zm-29.9 11.7h14.3c2.6 0 5.2 2.6 5.2 5.2s-2.6 5.2-5.2 5.2h-14.3c-2.6 0-5.2-2.6-5.2-5.2s2.6-5.2 5.2-5.2zm-7.8 39c-2.6 0-5.2-2.6-5.2-5.2s2.6-5.2 5.2-5.2h14.3c2.6 0 5.2 2.6 5.2 5.2s-2.6 5.2-5.2 5.2h-14.3zm29.9 13h-9.1c-2.6 0-3.9-1.3-3.9-3.9s1.3-3.9 3.9-3.9h9.1c2.6 0 3.9 1.3 3.9 3.9s-1.3 3.9-3.9 3.9zm9.1-28.6h-9.1c-2.6 0-3.9-1.3-3.9-3.9s1.3-3.9 3.9-3.9h9.1c2.6 0 3.9 1.3 3.9 3.9s-2.6 3.9-3.9 3.9zm18.2 14.3h-9.1c-2.6 0-3.9-1.3-3.9-3.9 0-2.6 1.3-3.9 3.9-3.9h9.1c2.6 0 3.9 1.3 3.9 3.9 0 2.6-2.6 3.9-3.9 3.9zm16.9 14.3h-9.1c-2.6 0-3.9-1.3-3.9-3.9s1.3-3.9 3.9-3.9h9.1c2.6 0 3.9 1.3 3.9 3.9s-1.3 3.9-3.9 3.9zm9.1-28.6h-9.1c-2.6 0-3.9-1.3-3.9-3.9s1.3-3.9 3.9-3.9h9.1c2.6 0 3.9 1.3 3.9 3.9s-1.3 3.9-3.9 3.9zm7.8-27.3h-9.1c-2.6 0-3.9-1.3-3.9-3.9s1.3-3.9 3.9-3.9h9.1c2.6 0 3.9 1.3 3.9 3.9s-1.3 3.9-3.9 3.9zM137.8 274.4H130c-1.3 0-3.9 1.3-3.9 2.6s1.3 3.9 3.9 3.9h7.8c1.3 0 2.6-1.3 2.6-3.9 1.3-1.3 0-2.6-2.6-2.6zM162.5 260.1h-7.8c-1.3 0-2.6 1.3-2.6 3.9 0 1.3 1.3 2.6 2.6 2.6h7.8c1.3 0 3.9-1.3 3.9-2.6-1.3-2.6-2.6-3.9-3.9-3.9zM146.9 245.8h-7.8c-1.3 0-3.9 1.3-3.9 2.6s1.3 2.6 3.9 2.6h7.8c1.3 0 3.9-1.3 3.9-2.6s-2.6-2.6-3.9-2.6z"/><path class="st1" d="M256.2 53.3c-24.7 0-48.1 3.9-68.9 11.7l-32.5 117h290C414.8 107.9 342 53.3 256.2 53.3zM140.4 314.7c-13 0-23.4-1.3-31.2-5.2-11.7-5.2-20.8-16.9-20.8-35.1 0-15.6 3.9-28.6 9.1-46.8l39-133.9C87.1 130 54.6 188.6 54.6 254.9c0 110.5 89.7 200.3 200.3 200.3 89.7 0 166.4-58.5 191.2-140.4H140.4z"/></svg>